<svg xmlns="http://www.w3.org/2000/svg" viewBox="0 0 53.46 51.5"><defs><style>.cls-1{fill:#a31616;}.cls-2,.cls-3,.cls-4{fill:#fff;}.cls-3,.cls-4{font-size:8.19px;font-family:HighTowerText-Italic, High Tower Text;font-style:italic;}.cls-3{letter-spacing:-0.02em;}.cls-4{letter-spacing:-0.02em;}</style></defs><g id="Layer_2" data-name="Layer 2"><g id="Layer_1-2" data-name="Layer 1"><rect class="cls-1" width="53.46" height="51.5"/><path class="cls-2" d="M33.11,19.46a20.16,20.16,0,0,0-2.05,0c-.69.07-.84.39-.55,1s.68,1.4,1,2.08a1.29,1.29,0,0,0,1.44.68c1-.17,1.89-.42,2.82-.65.66-.17,1.31-.42,2-.55a2.11,2.11,0,0,1,2.81,1.74,6.38,6.38,0,0,1-1.14,5.5A2.3,2.3,0,0,1,36.2,30c-1.85-1.37-3.7-1.19-5.62-.36a9.29,9.29,0,0,1-6.36.42,5.72,5.72,0,0,0-4.14.4c-1.08.55-2.19,1-3.23,1.62-1.24.72-1.22,1.61,0,2.38.28.18.57.33.85.51.77.51.78,1,0,1.53a4.86,4.86,0,0,1-4.17.84A3.27,3.27,0,0,1,10.76,35a1.48,1.48,0,0,0-.93-.72,1.24,1.24,0,0,1-1-1.27A1.94,1.94,0,0,0,8.39,32c-.46-.56-1.05-1-1.52-1.58-1-1.15-.92-2.22.09-3.52a2.65,2.65,0,0,1,3.43-1c.36.17.71.37,1.07.54a1,1,0,0,0,1.43-.34,3.43,3.43,0,0,1,2.74-1.38c.73-.08,1.46-.13,2.18-.25a4.74,4.74,0,0,0,3.78-3c.65-1.54,1.1-3.17,1.74-4.71a14.86,14.86,0,0,1,5.05-6.63,8,8,0,0,1,2.79-1.28,4.69,4.69,0,0,1,5.29,2.53,6.13,6.13,0,0,1,.34,5.91A3.47,3.47,0,0,1,33.11,19.46ZM7.48,29.25A1.48,1.48,0,0,0,9,30.74a1.51,1.51,0,0,0,1.52-1.52,1.54,1.54,0,0,0-1.56-1.5A1.51,1.51,0,0,0,7.48,29.25Z"/><text class="cls-3" transform="translate(19.8 38.19)">fondacioni</text><text class="cls-4" transform="translate(12.46 44.34)">art &amp; histori</text></g></g></svg>